<svg width="13" height="13" viewBox="0 0 13 13" fill="none" xmlns="http://www.w3.org/2000/svg">
<path d="M11.5477 10.8481L8.25068 7.55117C8.7623 6.88975 9.03906 6.08105 9.03906 5.23047C9.03906 4.2123 8.6417 3.25762 7.92314 2.53779C7.20459 1.81797 6.24736 1.42188 5.23047 1.42188C4.21357 1.42188 3.25635 1.81924 2.53779 2.53779C1.81797 3.25635 1.42188 4.2123 1.42188 5.23047C1.42188 6.24736 1.81924 7.20459 2.53779 7.92314C3.25635 8.64297 4.2123 9.03906 5.23047 9.03906C6.08105 9.03906 6.88848 8.7623 7.5499 8.25195L10.8469 11.5477C10.8565 11.5573 10.868 11.565 10.8807 11.5702C10.8933 11.5755 10.9068 11.5782 10.9205 11.5782C10.9342 11.5782 10.9477 11.5755 10.9604 11.5702C10.973 11.565 10.9845 11.5573 10.9941 11.5477L11.5477 10.9954C11.5573 10.9857 11.565 10.9743 11.5702 10.9616C11.5755 10.949 11.5782 10.9355 11.5782 10.9218C11.5782 10.9081 11.5755 10.8946 11.5702 10.8819C11.565 10.8693 11.5573 10.8578 11.5477 10.8481ZM7.24141 7.24141C6.70313 7.77842 5.98965 8.07422 5.23047 8.07422C4.47129 8.07422 3.75781 7.77842 3.21953 7.24141C2.68252 6.70313 2.38672 5.98965 2.38672 5.23047C2.38672 4.47129 2.68252 3.75654 3.21953 3.21953C3.75781 2.68252 4.47129 2.38672 5.23047 2.38672C5.98965 2.38672 6.70439 2.68125 7.24141 3.21953C7.77842 3.75781 8.07422 4.47129 8.07422 5.23047C8.07422 5.98965 7.77842 6.70439 7.24141 7.24141Z" fill="#637289"/>
</svg>
