<svg width="58" height="60" viewBox="0 0 58 60" fill="none" xmlns="http://www.w3.org/2000/svg">
<path d="M32.3477 29.9986L39.5075 22.8555C39.821 22.542 39.9972 22.1167 39.9972 21.6733C39.9972 21.2299 39.821 20.8047 39.5075 20.4911C39.1939 20.1776 38.7687 20.0015 38.3253 20.0015C37.8819 20.0015 37.4566 20.1776 37.1431 20.4911L30 27.6509L22.8569 20.4911C22.5434 20.1776 22.1181 20.0015 21.6747 20.0015C21.2313 20.0015 20.8061 20.1776 20.4925 20.4911C20.179 20.8047 20.0028 21.2299 20.0028 21.6733C20.0028 22.1167 20.179 22.542 20.4925 22.8555L27.6523 29.9986L20.4925 37.1417C20.3365 37.2965 20.2126 37.4807 20.1281 37.6836C20.0435 37.8865 20 38.1041 20 38.3239C20 38.5437 20.0435 38.7613 20.1281 38.9643C20.2126 39.1672 20.3365 39.3513 20.4925 39.5061C20.6473 39.6622 20.8315 39.786 21.0344 39.8706C21.2373 39.9551 21.4549 39.9986 21.6747 39.9986C21.8945 39.9986 22.1122 39.9551 22.3151 39.8706C22.518 39.786 22.7021 39.6622 22.8569 39.5061L30 32.3464L37.1431 39.5061C37.2979 39.6622 37.482 39.786 37.6849 39.8706C37.8878 39.9551 38.1055 39.9986 38.3253 39.9986C38.5451 39.9986 38.7627 39.9551 38.9656 39.8706C39.1685 39.786 39.3527 39.6622 39.5075 39.5061C39.6635 39.3513 39.7874 39.1672 39.8719 38.9643C39.9565 38.7613 40 38.5437 40 38.3239C40 38.1041 39.9565 37.8865 39.8719 37.6836C39.7874 37.4807 39.6635 37.2965 39.5075 37.1417L32.3477 29.9986Z" fill="#366AB9"/>
</svg>
