<svg width="25" height="24" viewBox="0 0 25 24" fill="none" xmlns="http://www.w3.org/2000/svg">
<path d="M21.5157 7.65738C20.8464 7.93846 20.1331 8.12476 19.3895 8.21522C20.1545 7.77799 20.7384 7.09092 21.0129 6.26277C20.2996 6.66984 19.5121 6.95738 18.6729 7.11784C17.9956 6.42754 17.0304 6 15.9774 6C13.9344 6 12.2896 7.58738 12.2896 9.53338C12.2896 9.81338 12.3144 10.0826 12.3751 10.3389C9.30725 10.1957 6.59262 8.78815 4.76899 6.644C4.45062 7.17276 4.26387 7.77799 4.26387 8.42953C4.26387 9.65291 4.922 10.7374 5.903 11.3652C5.31012 11.3544 4.72849 11.1897 4.23574 10.9301C4.23574 10.9409 4.23574 10.9549 4.23574 10.9689C4.23574 12.6855 5.51487 14.1114 7.19225 14.4398C6.89187 14.5184 6.5645 14.5561 6.22475 14.5561C5.9885 14.5561 5.75 14.5432 5.52612 14.4958C6.00425 15.8948 7.36101 16.9232 8.97425 16.9566C7.71875 17.8968 6.12462 18.4632 4.39887 18.4632C4.09624 18.4632 3.806 18.4503 3.51575 18.4148C5.15037 19.4238 7.08762 20 9.17675 20C15.9672 20 19.6797 14.6154 19.6797 9.94799C19.6797 9.79184 19.6741 9.64107 19.6662 9.49138C20.3986 8.99384 21.014 8.37245 21.5157 7.65738Z" fill="#1B2437"/>
</svg>
